<svg xmlns="http://www.w3.org/2000/svg" width="256" height="256"><path fill="#0216A6" d="M56.621-.5C60.234.26 61.856 2.096 64 5c2.131 4.262 1.227 9.907 1.24 14.639.01 2.09.04 4.178.073 6.267q.009 2.008.015 4.016l.028 3.675C64.96 37.395 64.008 39.767 62 43c-4.242 2.828-8.02 2.77-13 2-3.65-2.533-4.756-4.005-5.812-8.312L43 34c-7.21 1.083-12.795 2.353-17.812 8.063-2.237 3.649-2.323 6.703-2.35 10.886l-.028 3.714q-.008 2.012-.013 4.025l-.017 4.145q-.015 4.353-.02 8.706c-.006 3.69-.03 7.38-.058 11.07-.019 2.86-.024 5.718-.026 8.577a838 838 0 0 1-.042 6.04c.043 17.545 5.996 31.238 18.307 43.747 14.182 13.036 33.065 18.726 52.153 18.277 17.499-1.505 35.618-8.22 47.906-21.25 11.432-14.228 15.478-28.778 15.434-46.895l.015-3.855q.011-3.999-.003-7.999c-.012-3.397.009-6.793.038-10.19.023-3.277.016-6.553.012-9.83l.034-3.663c-.067-8.093-1.005-13.732-6.655-19.88-4.063-2.385-8.332-3.524-12.875-4.688l-.25 2.688c-.851 3.759-2.13 5.533-4.75 8.312-3.468 1.734-7.208 1.466-11 1-3.205-1.773-4.563-3.067-6.11-6.371-1.313-5.354-1.218-10.575-1.203-16.066l-.048-3.354c-.005-7.029.049-12.855 5.24-18.111C122.799-.932 126.728-.857 131 0c3.279 2.225 4.74 5.077 5.813 8.875L137 11l1.8-.14c9.5-.414 17.644 2.427 25.2 8.14l2.375 1.625L168 22v2h2c1.402 1.8 1.402 1.8 2.938 4.313l1.527 2.425c4.442 9.438 4.992 18.65 4.969 28.957l.015 4.203q.013 4.385-.003 8.769a822 822 0 0 0 .02 8.884c.294 38.323.294 38.323-8.216 53.824l-1.037 1.974c-10.91 20.241-29.019 35.148-51.03 41.935-5.35 1.557-10.662 2.898-16.183 3.716.774 13.421 8.01 26.494 17.563 35.75C134.58 230.638 151.035 234.368 169 233c14.156-1.842 28.407-9.278 37.231-20.576 8.494-11.557 12.854-23.651 12.974-38.082l.03-2.249q.047-3.652.081-7.304l.063-5.086q.082-6.673.153-13.346.077-6.818.161-13.634.162-13.361.307-26.723l-2.378-.89c-2.933-1.242-4.26-2.514-6.31-4.922-.58-.667-1.162-1.333-1.761-2.02-3.924-5.485-4.615-11.56-4.551-18.168 1.05-5.981 3.645-11.71 8-16 7.834-5.324 14.578-6.799 24-6 7.635 1.76 12.582 6.717 17 13 3.243 6.38 3.234 14.705 1.277 21.516-2.681 5.689-6.569 9.8-12.277 12.484l.02 2.74q.09 12.883.135 25.767.022 6.622.071 13.243.048 6.408.059 12.818.008 2.426.032 4.85c.258 26.548-7.123 49.625-25.669 69.055-17.028 16.25-37.495 23.23-60.784 22.996-21.744-.66-41.99-9.886-57.052-25.656C88.589 217.913 79 200.53 79 183l-2.535-.262C56.26 180.3 38.405 172.518 24 158l-2.687-2.5C8.8 141.973.005 124.646-.194 105.992l-.025-2.043q-.035-3.323-.055-6.644l-.017-2.312q-.039-6.06-.06-12.12-.02-4.982-.082-9.963c-.05-4.033-.074-8.066-.081-12.1q-.01-2.287-.046-4.576c-.185-12.383 1.689-23.15 10.614-32.421 9.747-9.082 17.018-12.24 30.418-11.918L43 12l.188-3.187C44.852 1.003 49.166-.857 56.62-.5M228 80v5l5 1a88 88 0 0 0 1-5c-1.066-1.296-1.066-1.296-3.562-1.062z"/></svg>